<svg width="89" height="67" viewBox="0 0 89 67" fill="none" xmlns="http://www.w3.org/2000/svg">
<path d="M61.7041 12.9975L88.4736 15.6723L47.5498 5.21509L30.2304 0.788395C18.8761 -2.10737 6.2096 9.1278 1.92631 25.8903C-2.35699 42.6527 3.37316 58.5969 14.7174 61.4942L22.7532 63.5465C16.5203 57.0585 13.8854 44.8754 17.111 32.2566C20.2571 19.9482 27.7548 10.571 35.655 7.52715C29.0572 11.6296 23.2457 20.0679 20.542 30.6521C16.2587 47.4145 21.4094 63.2034 32.0469 65.9193C33.5946 66.3176 35.1716 66.4132 36.7468 66.2368C37.1912 66.1873 37.6424 66.1161 38.0904 66.025C38.0904 66.025 38.0954 66.0242 38.1005 66.0234L87.1968 58.2829L56.1208 59.5137L74.4899 56.6177L51.9036 56.0014C54.5266 52.4331 56.7401 48.0919 58.2874 43.2083L64.5306 43.4726L58.6666 41.9308L57.6959 41.6728L56.7901 41.4354L58.8688 41.2259C58.9335 40.9844 58.9974 40.738 59.0606 40.4866C60.5028 34.8386 60.8792 29.3072 60.3271 24.3385L70.7994 24.5731L59.993 21.9917L57.8631 21.4849L58.6929 21.3386L59.8328 21.1383C59.4897 19.4506 59.0365 17.8471 58.4722 16.3536L81.9472 17.9138L61.7041 12.9975ZM15.1064 8.23379C5.92982 18.7595 1.70506 36.8383 4.8426 50.4167C-1.48936 37.7273 3.34782 18.4164 13.1438 8.62543C15.0933 6.68417 17.4154 4.98733 19.9797 4.01271C18.132 5.19805 16.5306 6.64255 15.1072 8.2388L15.1064 8.23379ZM44.4053 24.3773C43.0337 25.9757 41.5084 25.5893 41.0751 23.5253L39.4861 16.0534C39.6127 15.9769 39.7494 15.8989 39.8769 15.8274C40.0521 15.733 40.2281 15.6436 40.4057 15.5642C40.4778 15.5323 40.554 15.4946 40.6269 15.4677C40.7324 15.4202 40.838 15.3727 40.9493 15.3295C41.0707 15.2847 41.1929 15.2448 41.3193 15.1992C41.3821 15.1739 41.4457 15.1536 41.5093 15.1333C41.6557 15.0845 41.8037 15.0458 41.9526 15.012C42.0027 15.0041 42.0555 14.9804 42.1056 14.9725C42.2394 14.9411 42.3798 14.919 42.5151 14.8976C42.5753 14.8882 42.6405 14.8779 42.7006 14.8684C42.8109 14.851 42.9236 14.8487 43.0339 14.8313C43.1207 14.8279 43.2067 14.8194 43.2927 14.811C43.3695 14.8092 43.4513 14.8066 43.5289 14.8098C43.6415 14.8074 43.76 14.8093 43.8785 14.8111C43.931 14.8183 43.9827 14.8204 44.0352 14.8275C44.1703 14.8371 44.3112 14.8508 44.4479 14.8704C44.4954 14.8783 44.5328 14.8878 44.5753 14.8965C44.7128 14.9211 44.856 14.9499 44.9951 14.9845C45.0484 14.9966 45.1025 15.0138 45.1565 15.031C45.2747 15.0637 45.3937 15.1015 45.5127 15.1392C45.5942 15.1675 45.6707 15.1965 45.7531 15.2298C45.8354 15.2631 45.9227 15.2955 46.0008 15.3346C46.1113 15.384 46.2169 15.4341 46.324 15.4943C46.3738 15.5173 46.4137 15.5418 46.4585 15.5656C46.5997 15.6461 46.7358 15.7274 46.8685 15.8195C46.8801 15.8279 46.8909 15.8314 46.9025 15.8398C47.8523 16.4865 48.6877 17.4183 49.3816 18.5934L44.4119 24.3865L44.4053 24.3773ZM51.0194 22.7899C51.4075 24.4037 51.6387 26.1964 51.691 28.1252C51.6942 28.1452 51.6982 28.1703 51.6921 28.1969C51.6989 28.4682 51.7007 28.7402 51.7024 29.0123C51.7008 29.0999 51.6992 29.1875 51.6976 29.275C51.6957 29.4911 51.6888 29.708 51.6877 29.9291C51.6814 30.0843 51.6758 30.2444 51.6694 30.3996C51.6588 30.5605 51.6525 30.7157 51.6461 30.8708C51.635 31.0935 51.6138 31.3178 51.5976 31.5413C51.5892 31.6505 51.5849 31.7539 51.5715 31.864C51.55 32.1191 51.5236 32.375 51.4971 32.631C51.4855 32.7201 51.4781 32.8035 51.4665 32.8927C51.4384 33.1386 51.4046 33.3803 51.3758 33.6212C51.3623 33.7312 51.3488 33.8412 51.3295 33.947C51.3044 34.1462 51.2701 34.352 51.24 34.552C51.2186 34.7095 51.1913 34.8628 51.1641 35.0161C51.1411 35.1636 51.1131 35.3119 51.0851 35.4602C51.0458 35.6668 51.0122 35.8776 50.9678 36.085C50.9486 36.1908 50.9235 36.2923 50.9084 36.3923C50.8561 36.6472 50.803 36.8971 50.7449 37.1477C50.7267 37.2277 50.7042 37.3134 50.6868 37.3984C50.6202 37.6606 50.5637 37.9213 50.4929 38.1893C50.4628 38.2917 50.4378 38.3933 50.4127 38.4949C50.3514 38.7255 50.2901 38.9561 50.2239 39.1874C50.1808 39.3381 50.1378 39.4887 50.0905 39.6452C50.0398 39.8125 49.9941 39.979 49.9426 40.1412C49.874 40.3576 49.8053 40.5739 49.7367 40.7902C49.705 40.8826 49.6733 40.9749 49.6408 41.0623C49.5783 41.252 49.5099 41.4374 49.4465 41.6221L46.1505 36.5875C45.2424 35.1945 45.4747 32.3011 46.676 30.2414L50.9986 22.788L51.0194 22.7899ZM37.6703 41.1666C37.843 40.5023 38.2618 40.0304 38.6106 40.1244C38.9586 40.2134 39.101 40.8229 38.9341 41.4915C38.7613 42.1558 38.3425 42.6278 37.9937 42.5337C37.6457 42.4447 37.5034 41.8352 37.6703 41.1666ZM36.3557 37.7824C35.9692 37.905 35.7052 37.4688 35.7594 36.8026C35.8194 36.1406 36.1721 35.5095 36.5537 35.3877C36.9402 35.2651 37.2042 35.7013 37.15 36.3675C37.09 37.0295 36.7373 37.6606 36.3557 37.7824ZM36.2518 27.5741C36.3085 29.9544 35.1345 32.6108 33.6699 33.3915L28.3582 36.2328C28.3722 36.1587 28.3811 36.0853 28.3951 36.0112C28.4049 35.9428 28.4205 35.8787 28.4303 35.8104C28.6068 34.8115 28.8226 33.8012 29.0835 32.7839C29.5269 31.0338 30.0764 29.3698 30.7076 27.8008C30.7171 27.7634 30.7374 27.7293 30.7469 27.6919C30.8502 27.4341 30.9592 27.1806 31.0682 26.927C31.1023 26.8497 31.1321 26.7782 31.1662 26.7009C31.2615 26.4907 31.356 26.2754 31.4513 26.0651C31.5014 25.9596 31.5516 25.854 31.5967 25.7493C31.6867 25.5707 31.7702 25.3828 31.8602 25.2042C31.9188 25.0871 31.9774 24.97 32.0368 24.8578C32.1268 24.6792 32.2176 24.5056 32.3134 24.3313C32.3686 24.2249 32.4195 24.1244 32.4797 24.0173C32.5874 23.8205 32.6959 23.6287 32.8044 23.4369C32.8408 23.3746 32.8772 23.3124 32.9137 23.2501C33.8734 21.6139 34.9242 20.1637 36.0236 18.9577L36.2467 27.5749L36.2518 27.5741ZM27.8657 42.2346L32.9756 41.7629C34.3886 41.6326 35.1768 43.6663 34.7097 46.2114L33.0166 55.4493C32.8406 55.3435 32.6704 55.2418 32.5071 55.1186C32.4897 55.1059 32.4723 55.0932 32.4549 55.0806C32.3156 54.9792 32.1805 54.8721 32.0505 54.7641C32.0149 54.7338 31.9843 54.7026 31.9537 54.6715C31.8294 54.5678 31.7094 54.4582 31.5936 54.3429C31.5564 54.3025 31.5184 54.2571 31.4812 54.2168C31.315 54.0426 31.1465 53.8534 30.9922 53.6567C30.9096 53.5567 30.827 53.4567 30.7479 53.3459C30.682 53.2535 30.611 53.1619 30.5493 53.0638C30.4818 52.9614 30.4092 52.8598 30.3401 52.7474C30.2586 52.6215 30.1806 52.4848 30.1025 52.3481C30.0811 52.3104 30.0598 52.2726 30.0376 52.2299C28.6411 49.7269 27.8791 46.2299 27.865 42.2296L27.8657 42.2346ZM39.1048 47.3322C39.9148 44.8769 41.5843 43.4731 42.7622 44.2636L47.0151 47.1229C46.8396 47.4435 46.654 47.7656 46.4661 48.0727C46.4677 48.0827 46.4534 48.0901 46.455 48.1001C46.317 48.3325 46.1731 48.5607 46.0293 48.7889C45.9921 48.8462 45.9556 48.9084 45.9184 48.9657C45.8068 49.1374 45.6951 49.3092 45.5827 49.4759C45.5074 49.5854 45.4322 49.6949 45.3562 49.7993C45.276 49.9096 45.1957 50.0199 45.1205 50.1294C45.0115 50.2853 44.8917 50.4377 44.7827 50.5937L44.6494 50.7585C44.5 50.9517 44.3456 51.1455 44.1946 51.3286C44.1812 51.341 44.1777 51.3518 44.1643 51.3642C42.9339 52.8479 41.6209 54.0362 40.2877 54.8681C40.2693 54.8813 40.25 54.8895 40.2315 54.9027C40.0729 55.0047 39.9069 55.0926 39.7468 55.1846C39.6898 55.2142 39.6336 55.2487 39.5758 55.2732C39.4475 55.3397 39.3243 55.4054 39.1952 55.4668C39.0947 55.5135 38.9984 55.5544 38.8971 55.596C38.8057 55.6361 38.7187 55.6704 38.6324 55.7097C38.4968 55.7619 38.3603 55.8091 38.2239 55.8563C38.1703 55.875 38.1168 55.8938 38.0632 55.9125C37.7795 56.0034 37.4969 56.0685 37.2228 56.122L37.0674 56.1465C36.8317 56.1837 36.6045 56.2092 36.3766 56.2298C36.2998 56.2316 36.2338 56.2369 36.1628 56.2429L39.1032 47.3222L39.1048 47.3322ZM42.4287 30.4487C42.7684 29.9635 43.1924 29.948 43.3728 30.4077C43.5539 30.8724 43.4287 31.6423 43.0848 32.1333C42.7451 32.6184 42.3211 32.6339 42.1407 32.1742C41.9603 31.7145 42.0856 30.9446 42.4295 30.4537L42.4287 30.4487ZM42.6978 38.5757C42.423 39.1791 41.981 39.4389 41.709 39.1478C41.432 38.8575 41.4251 38.129 41.6949 37.5264C41.9639 36.9188 42.4067 36.664 42.6787 36.9551C42.9556 37.2454 42.9676 37.9731 42.6978 38.5757ZM41.1786 35.8814C40.796 37.3649 39.8656 38.4056 39.0897 38.2094C38.3188 38.0124 38.0011 36.6495 38.3788 35.1668C38.7614 33.6832 39.6918 32.6425 40.4677 32.8387C41.2387 33.0357 41.5563 34.3986 41.1786 35.8814ZM39.3192 31.4527C38.9376 31.7698 38.5749 31.5546 38.5117 30.9583C38.4443 30.3678 38.6977 29.6291 39.0785 29.307C39.4652 28.9891 39.8229 29.205 39.8911 29.8006C39.9585 30.3911 39.7 31.1306 39.3192 31.4527ZM55.2626 39.6981C51.7966 53.2694 42.854 62.7049 35.2945 60.7728C33.2656 60.2552 31.5429 58.9751 30.18 57.1091C30.2718 57.2025 30.352 57.2875 30.443 57.3759C30.4852 57.4155 30.5208 57.4458 30.5631 57.4854C30.7087 57.6269 30.8627 57.7567 31.006 57.8832C31.0234 57.8958 31.0408 57.9085 31.0582 57.9212C32.5305 59.1123 34.2132 59.7153 36.0383 59.6896C36.08 59.6933 36.1159 59.6928 36.146 59.688C36.2995 59.6844 36.4573 59.6749 36.6093 59.6612C36.7011 59.657 36.7871 59.6486 36.8782 59.6394C36.9834 59.6228 37.0887 59.6062 37.194 59.5896C37.3294 59.5683 37.4647 59.5469 37.5951 59.5264C37.6703 59.5145 37.7531 59.486 37.8283 59.4742C37.9872 59.4389 38.141 59.4043 38.2983 59.359C38.3183 59.3558 38.3434 59.3519 38.3585 59.3495C38.417 59.33 38.4756 59.3105 38.5342 59.291C38.6915 59.2456 38.8379 59.1968 38.9936 59.1415C39.1108 59.1024 39.2221 59.0592 39.3377 59.0101C39.444 58.9677 39.5554 58.9244 39.666 58.8762C39.8243 58.805 39.9876 58.733 40.1452 58.6568C40.203 58.6322 40.2642 58.5969 40.322 58.5724C40.5265 58.4682 40.7302 58.359 40.9331 58.2448C40.9482 58.2424 40.9566 58.2308 40.9709 58.2234C42.5911 57.2898 44.1474 55.95 45.5979 54.2981C45.5979 54.2981 45.5979 54.2981 45.6064 54.2865C45.7977 54.0662 45.984 53.8467 46.1688 53.6172C46.2118 53.5642 46.2548 53.5112 46.2979 53.4581C46.4388 53.2766 46.5848 53.0944 46.7257 52.9129C46.8152 52.796 46.8954 52.6857 46.9849 52.5689C47.0778 52.4412 47.1749 52.3077 47.272 52.1742C47.3979 51.9951 47.5288 51.8151 47.654 51.631C47.7038 51.5563 47.7537 51.4817 47.8036 51.407C47.9659 51.1656 48.1267 50.9142 48.2874 50.6628C48.3001 50.6454 48.307 50.6238 48.3246 50.6056C49.5966 48.5707 50.7275 46.2602 51.655 43.735C51.6695 43.6968 51.6848 43.6635 51.6943 43.6261C51.8055 43.3208 51.9124 43.0214 52.0178 42.7119C52.0563 42.5979 52.0907 42.4897 52.13 42.3808C52.2055 42.1428 52.286 41.904 52.3608 41.661C52.4226 41.4663 52.4801 41.2774 52.5319 41.0843C52.5818 40.912 52.6333 40.7497 52.6782 40.5783C52.754 40.3094 52.8255 40.0464 52.8963 39.7783C52.9187 39.6925 52.947 39.611 52.9644 39.5261C52.9705 39.4994 52.9766 39.4728 52.9827 39.4461C53.0587 39.1464 53.1332 38.8367 53.2042 38.5377C53.2209 38.4478 53.2483 38.3612 53.265 38.2712C53.3268 37.9789 53.3944 37.6908 53.4462 37.4C53.4697 37.2884 53.4932 37.1768 53.5125 37.071C53.5621 36.832 53.601 36.5895 53.6483 36.3354C53.6747 36.1771 53.7061 36.018 53.7326 35.8597C53.765 35.6748 53.7875 35.4914 53.815 35.3072C53.847 35.0864 53.8848 34.8698 53.9067 34.6505C53.9263 34.5139 53.9416 34.383 53.9569 34.2521C53.9918 33.9846 54.0217 33.7178 54.0524 33.4561C54.0608 33.3469 54.0677 33.2276 54.0812 33.1176C54.1087 32.8358 54.132 32.5598 54.1503 32.2846C54.1555 32.2529 54.155 32.2171 54.1603 32.1854C54.1632 32.1387 54.1611 32.0928 54.164 32.0461C54.2006 31.4957 54.2279 30.9519 54.2409 30.4155C54.2423 30.3588 54.2436 30.302 54.2449 30.2453C54.2535 29.7456 54.2536 29.2574 54.2395 28.7767C54.2353 28.5872 54.2261 28.3986 54.2235 28.2192C54.2088 27.8002 54.1841 27.3827 54.1552 26.9711C54.1323 26.7281 54.1102 26.4901 54.0881 26.2521C54.0691 26.0341 54.0409 25.8228 54.0178 25.6106C53.9688 25.2022 53.9063 24.8061 53.8439 24.4101C53.8146 24.2246 53.7854 24.0391 53.7477 23.8652C53.7082 23.6145 53.6544 23.3712 53.6006 23.128C53.5437 22.8646 53.4768 22.6029 53.4156 22.3453C53.3502 22.0936 53.279 21.8376 53.2102 21.5967C53.1348 21.3466 53.0594 21.0964 52.9806 20.8571C52.9384 20.7199 52.8912 20.5834 52.844 20.447C52.7079 20.0728 52.5642 19.7153 52.4163 19.3635C52.3844 19.2915 52.3517 19.2144 52.3198 19.1424C51.0835 16.3521 49.2916 14.3071 47.0295 13.3536C46.963 13.3229 46.9031 13.3015 46.8424 13.2751C46.5688 13.1693 46.2918 13.0742 46.0071 12.9958C45.9855 12.9889 45.9639 12.9821 45.9422 12.9752C45.9098 12.9649 45.8681 12.9612 45.8356 12.9509C45.5792 12.8886 45.3259 12.8463 45.0692 12.8148C44.98 12.8032 44.8858 12.7924 44.7916 12.7815C44.494 12.7514 44.1937 12.7371 43.8916 12.7436C43.8716 12.7468 43.8465 12.7507 43.8148 12.7454C43.5027 12.7535 43.1895 12.7875 42.8729 12.8323L42.7124 12.8576C42.3715 12.9113 42.0338 12.9851 41.7 13.084L41.6548 13.0911C41.5862 13.1122 41.5226 13.1325 41.4548 13.1586C41.3176 13.2008 41.1804 13.243 41.0347 13.2968C40.9033 13.3432 40.7627 13.3962 40.6278 13.4534C40.55 13.4811 40.4679 13.5146 40.3859 13.5481C39.3172 14.0043 38.2611 14.6384 37.2276 15.4487C40.6176 12.2476 44.3773 10.7403 47.8473 11.6318C55.4118 13.5631 58.7293 26.1318 55.2583 39.7039L55.2626 39.6981Z" fill="white"/>
</svg>
